<svg id="svg" version="1.1" width="800" height="800" xmlns="http://www.w3.org/2000/svg"><path d="M508.500 7.172 C 498.187 8.049,499.054 7.827,454.500 20.957 C 311.008 63.242,218.132 92.260,193.500 102.501 C 170.147 112.210,156.675 120.390,144.148 132.466 C 134.385 141.878,128.111 150.166,115.445 170.386 C 99.844 195.290,67.169 258.518,33.993 328.000 C 28.084 340.375,19.569 358.030,15.072 367.232 C 0.387 397.277,-2.284 416.927,5.180 440.000 C 9.476 453.280,11.148 456.047,71.361 549.500 C 80.575 563.800,105.196 602.050,126.075 634.500 C 207.037 760.331,199.552 749.302,211.183 759.906 C 227.537 774.816,239.233 781.651,258.162 787.358 C 272.490 791.678,287.443 793.472,302.760 792.708 C 315.454 792.074,310.022 793.602,406.500 763.528 C 431.631 755.695,475.400 742.157,496.000 735.846 C 506.725 732.561,526.750 726.343,540.500 722.029 C 554.250 717.715,573.150 711.871,582.500 709.043 C 604.838 702.287,611.057 699.960,626.000 692.766 C 637.907 687.034,638.975 686.262,648.500 676.506 C 659.225 665.521,660.788 663.143,677.759 632.000 C 683.303 621.825,698.516 593.925,711.566 570.000 C 724.615 546.075,738.099 521.325,741.530 515.000 C 770.056 462.414,779.399 445.555,784.213 437.981 C 791.877 425.925,798.883 402.391,799.689 386.000 C 800.144 376.729,799.897 374.411,797.572 366.195 C 792.434 348.039,788.960 341.894,755.339 291.500 C 737.726 265.100,715.969 232.250,706.991 218.500 C 658.468 144.187,635.579 110.252,598.114 57.086 C 577.202 27.411,573.720 23.957,556.654 15.959 C 540.961 8.605,525.286 5.745,508.500 7.172 M502.833 30.299 C 503.627 31.255,503.263 32.997,501.456 36.898 C 498.313 43.682,498.313 47.403,501.455 50.545 C 504.367 53.458,508.897 53.764,513.022 51.328 C 514.579 50.408,518.923 45.469,522.676 40.352 C 529.942 30.445,532.875 28.378,538.233 29.386 C 547.482 31.125,561.727 40.302,568.209 48.696 C 583.954 69.085,645.142 158.776,679.425 211.718 C 684.333 219.298,706.565 252.950,728.827 286.500 C 751.639 320.877,771.061 351.210,773.327 356.000 C 778.211 366.321,778.674 371.346,774.998 374.127 C 773.622 375.168,763.047 378.667,751.498 381.902 C 739.949 385.137,703.050 395.460,669.500 404.842 C 635.950 414.224,585.775 428.280,558.000 436.079 C 493.370 454.225,482.393 457.080,480.252 456.303 C 479.288 455.953,476.304 453.942,473.619 451.834 C 470.471 449.361,467.693 448.000,465.792 448.000 C 462.006 448.000,457.000 452.824,457.000 456.473 C 457.000 462.071,454.471 464.776,447.246 466.910 C 431.590 471.532,411.629 477.000,410.409 477.000 C 406.061 477.000,402.866 472.967,376.825 434.599 C 361.856 412.544,340.545 381.225,329.468 365.000 C 318.390 348.775,303.715 327.175,296.856 317.000 C 283.267 296.841,233.943 224.165,221.862 206.500 C 192.421 163.452,177.500 141.126,176.628 138.820 C 174.933 134.337,177.067 131.495,185.215 127.390 C 207.398 116.212,255.276 100.459,382.000 62.644 C 505.860 25.683,500.249 27.185,502.833 30.299 M484.610 61.866 C 480.552 64.615,458.204 96.679,457.375 100.942 C 456.180 107.086,461.675 113.051,467.242 111.654 C 471.716 110.531,475.209 106.694,486.878 90.085 C 499.634 71.930,500.972 68.385,496.857 63.647 C 493.700 60.011,488.471 59.251,484.610 61.866 M439.549 124.091 C 435.846 127.342,417.814 151.980,414.775 157.940 C 412.350 162.697,412.543 165.304,415.589 168.923 C 417.618 171.335,418.975 172.000,421.866 172.000 C 423.895 172.000,426.561 171.295,427.791 170.434 C 429.751 169.061,444.453 149.395,452.250 137.717 C 456.492 131.364,455.945 125.057,450.928 122.463 C 446.618 120.234,443.421 120.692,439.549 124.091 M160.194 151.250 C 161.500 152.285,216.498 232.601,249.321 281.405 C 261.398 299.362,261.239 300.283,244.974 306.561 C 231.594 311.726,228.254 313.608,226.521 316.960 C 224.374 321.111,224.619 323.393,227.589 326.923 C 231.347 331.389,235.172 331.023,251.652 324.618 C 271.637 316.852,271.374 316.879,276.116 322.149 C 278.270 324.542,304.325 362.270,334.016 405.989 C 381.940 476.554,388.000 485.905,388.000 489.282 C 388.000 492.113,386.049 496.725,380.380 507.293 C 361.618 542.273,339.925 583.892,311.471 639.500 C 295.886 669.957,275.683 708.308,260.305 736.628 C 247.678 759.882,246.413 761.285,240.702 758.364 C 235.811 755.863,226.177 747.923,219.459 740.855 C 216.137 737.360,208.069 726.175,201.531 716.000 C 194.993 705.825,180.352 683.100,168.995 665.500 C 157.638 647.900,141.889 623.375,133.997 611.000 C 126.105 598.625,113.049 578.375,104.982 566.000 C 96.916 553.625,83.559 532.925,75.299 520.000 C 67.040 507.075,53.617 486.150,45.471 473.500 C 37.324 460.850,28.969 446.900,26.904 442.500 C 23.102 434.398,20.000 423.343,20.000 417.892 C 20.000 413.511,23.574 410.451,29.540 409.724 C 34.024 409.178,60.506 399.375,68.086 395.456 C 76.915 390.890,74.112 378.000,64.289 378.000 C 62.493 378.000,55.172 380.280,48.020 383.067 C 33.073 388.892,29.427 389.176,29.630 384.500 C 29.855 379.302,90.804 254.258,112.713 214.046 C 135.131 172.898,150.793 150.000,156.517 150.000 C 157.672 150.000,159.327 150.563,160.194 151.250 M397.091 182.577 C 395.407 183.994,388.622 192.836,382.014 202.226 C 371.816 216.717,370.000 219.867,370.000 223.060 C 370.000 226.033,370.645 227.365,373.077 229.411 C 380.019 235.252,384.445 232.270,398.765 212.102 C 411.482 194.190,413.336 190.806,412.504 187.020 C 411.022 180.270,402.688 177.867,397.091 182.577 M352.980 243.637 C 350.765 245.638,345.379 252.346,341.011 258.545 C 336.643 264.744,331.815 270.701,330.284 271.784 C 328.753 272.868,321.650 276.141,314.500 279.058 C 307.350 281.976,299.883 285.367,297.907 286.595 C 293.808 289.141,291.476 293.776,292.414 297.512 C 293.142 300.413,298.347 303.991,301.848 303.996 C 303.140 303.998,309.834 301.727,316.725 298.948 C 326.104 295.166,329.982 294.057,332.152 294.533 C 334.382 295.023,337.067 297.864,343.776 306.835 C 353.886 320.353,357.708 323.192,362.903 321.040 C 366.054 319.735,369.000 315.609,369.000 312.500 C 369.000 309.977,366.282 305.239,358.957 294.993 C 355.219 289.764,351.863 284.304,351.501 282.859 C 350.654 279.483,352.789 275.314,361.900 262.559 C 370.059 251.134,371.029 246.938,366.545 242.455 C 362.787 238.696,357.986 239.115,352.980 243.637 M178.500 332.026 C 158.149 340.518,154.000 343.372,154.000 348.881 C 154.000 352.769,157.411 356.799,161.323 357.533 C 164.785 358.182,169.685 356.565,193.000 347.076 C 209.914 340.193,213.609 335.946,209.537 328.072 C 206.316 321.843,201.410 322.468,178.500 332.026 M374.656 331.133 C 372.162 332.583,369.965 338.136,370.717 341.092 C 371.477 344.083,372.380 345.505,383.366 360.997 C 393.566 375.381,397.119 379.392,401.131 381.054 C 404.911 382.620,409.548 380.775,411.547 376.909 C 414.280 371.624,413.981 370.945,400.179 351.093 C 388.651 334.512,384.305 329.992,379.930 330.030 C 378.044 330.047,375.670 330.543,374.656 331.133 M111.035 358.347 C 99.093 363.061,91.586 366.606,89.785 368.381 C 82.739 375.325,89.419 385.292,99.564 382.970 C 107.634 381.124,136.277 369.109,139.133 366.372 C 145.171 360.588,141.510 350.967,133.295 351.028 C 130.992 351.045,122.242 353.922,111.035 358.347 M417.360 390.460 C 416.214 391.263,414.725 393.249,414.053 394.873 C 413.010 397.390,413.125 398.494,414.831 402.352 C 416.677 406.523,428.532 423.434,436.952 433.904 C 441.706 439.816,445.801 441.528,450.498 439.565 C 454.715 437.803,456.481 434.380,455.600 429.679 C 454.763 425.221,431.849 393.489,427.591 390.893 C 423.883 388.632,420.194 388.476,417.360 390.460 M776.629 398.557 C 778.233 401.004,778.170 401.524,775.170 410.605 C 773.446 415.825,769.608 424.237,766.643 429.298 C 760.226 440.248,743.905 469.999,698.506 553.500 C 643.788 654.141,646.959 648.542,639.812 657.130 C 631.991 666.529,631.221 666.153,616.011 645.515 C 609.415 636.565,602.905 628.512,601.544 627.621 C 596.052 624.022,588.924 626.471,587.417 632.475 C 586.382 636.600,587.572 639.167,595.732 650.409 C 609.458 669.316,612.000 673.099,612.000 674.612 C 612.000 679.238,606.347 681.487,553.500 697.882 C 501.921 713.883,426.703 737.144,419.000 739.476 C 414.875 740.724,389.675 748.564,363.000 756.897 C 307.885 774.115,301.659 775.385,283.362 773.136 C 271.490 771.677,268.000 770.052,268.000 765.982 C 268.000 764.047,274.032 751.806,285.356 730.758 C 303.856 696.373,321.903 661.814,345.020 616.500 C 359.396 588.321,393.931 522.516,401.173 509.500 C 407.455 498.212,407.195 498.353,437.647 489.692 C 452.522 485.462,465.774 482.016,467.096 482.035 C 470.975 482.093,473.858 484.257,479.132 491.070 C 486.692 500.839,491.654 502.500,497.077 497.077 C 500.718 493.436,500.826 490.036,497.500 483.788 C 494.409 477.981,494.347 475.457,497.250 473.629 C 498.488 472.850,528.975 464.019,565.000 454.005 C 628.944 436.230,641.246 432.785,729.000 408.075 C 752.375 401.493,772.277 396.083,773.227 396.054 C 774.177 396.024,775.708 397.151,776.629 398.557 M505.500 508.208 C 500.793 510.907,499.643 516.475,502.609 522.210 C 505.199 527.218,524.839 554.245,528.073 557.250 C 534.216 562.960,543.577 559.232,543.365 551.160 C 543.249 546.721,541.325 543.554,525.950 522.500 C 515.317 507.940,511.103 504.995,505.500 508.208 M548.500 567.155 C 545.177 568.972,544.000 571.172,544.000 575.569 C 544.000 579.338,545.274 581.528,556.782 597.543 C 563.811 607.327,570.789 616.247,572.288 617.366 C 578.494 621.999,587.000 618.307,587.000 610.981 C 587.000 606.670,584.057 601.836,569.284 581.883 C 561.590 571.491,558.432 567.998,555.952 567.133 C 551.990 565.752,551.060 565.755,548.500 567.155 " stroke="none" fill="#FFFFFF" fill-rule="evenodd"/></svg>